<mxfile host="app.diagrams.net" modified="2024-06-09T11:34:14.062Z" agent="Mozilla/5.0 (Windows NT 10.0; Win64; x64) AppleWebKit/537.36 (KHTML, like Gecko) Chrome/125.0.0.0 Safari/537.36" etag="6NgBt29FrNvorYj7eRuB" version="24.5.2" type="device">
  <diagram name="Strona-1" id="xiNB5JXKMqZNtYWRrHWA">
    <mxGraphModel dx="2603" dy="738" grid="1" gridSize="10" guides="1" tooltips="1" connect="1" arrows="1" fold="1" page="1" pageScale="1" pageWidth="1169" pageHeight="1654" math="0" shadow="0">
      <root>
        <mxCell id="0" />
        <mxCell id="1" parent="0" />
        <mxCell id="LLBpT46Yh_gF9BKEQQU7-3" style="edgeStyle=orthogonalEdgeStyle;rounded=0;orthogonalLoop=1;jettySize=auto;html=1;entryX=0.5;entryY=0;entryDx=0;entryDy=0;" edge="1" parent="1" source="LLBpT46Yh_gF9BKEQQU7-1" target="LLBpT46Yh_gF9BKEQQU7-2">
          <mxGeometry relative="1" as="geometry" />
        </mxCell>
        <mxCell id="LLBpT46Yh_gF9BKEQQU7-5" style="edgeStyle=orthogonalEdgeStyle;rounded=0;orthogonalLoop=1;jettySize=auto;html=1;entryX=0.5;entryY=0;entryDx=0;entryDy=0;" edge="1" parent="1" source="LLBpT46Yh_gF9BKEQQU7-1" target="LLBpT46Yh_gF9BKEQQU7-4">
          <mxGeometry relative="1" as="geometry" />
        </mxCell>
        <mxCell id="LLBpT46Yh_gF9BKEQQU7-1" value="&lt;font style=&quot;font-size: 13px;&quot;&gt;raw_data&lt;/font&gt;" style="ellipse;whiteSpace=wrap;html=1;aspect=fixed;fillColor=#f5f5f5;strokeColor=#666666;fontColor=#333333;" vertex="1" parent="1">
          <mxGeometry x="405" y="100" width="100" height="100" as="geometry" />
        </mxCell>
        <mxCell id="LLBpT46Yh_gF9BKEQQU7-7" style="edgeStyle=orthogonalEdgeStyle;rounded=0;orthogonalLoop=1;jettySize=auto;html=1;entryX=1;entryY=0.5;entryDx=0;entryDy=0;" edge="1" parent="1" source="LLBpT46Yh_gF9BKEQQU7-2" target="LLBpT46Yh_gF9BKEQQU7-6">
          <mxGeometry relative="1" as="geometry" />
        </mxCell>
        <mxCell id="LLBpT46Yh_gF9BKEQQU7-2" value="&lt;span style=&quot;font-size: 13px;&quot;&gt;select_data&lt;/span&gt;" style="ellipse;whiteSpace=wrap;html=1;aspect=fixed;fillColor=#f5f5f5;strokeColor=#666666;fontColor=#333333;" vertex="1" parent="1">
          <mxGeometry x="405" y="260" width="100" height="100" as="geometry" />
        </mxCell>
        <mxCell id="LLBpT46Yh_gF9BKEQQU7-9" style="edgeStyle=orthogonalEdgeStyle;rounded=0;orthogonalLoop=1;jettySize=auto;html=1;entryX=0;entryY=0.5;entryDx=0;entryDy=0;" edge="1" parent="1" source="LLBpT46Yh_gF9BKEQQU7-4" target="LLBpT46Yh_gF9BKEQQU7-8">
          <mxGeometry relative="1" as="geometry" />
        </mxCell>
        <mxCell id="LLBpT46Yh_gF9BKEQQU7-4" value="&lt;span style=&quot;font-size: 13px;&quot;&gt;extract_f_types&lt;/span&gt;" style="ellipse;whiteSpace=wrap;html=1;aspect=fixed;fillColor=#f5f5f5;strokeColor=#666666;fontColor=#333333;" vertex="1" parent="1">
          <mxGeometry x="580" y="260" width="100" height="100" as="geometry" />
        </mxCell>
        <mxCell id="LLBpT46Yh_gF9BKEQQU7-6" value="&lt;span style=&quot;font-size: 13px;&quot;&gt;serialize_data&lt;/span&gt;" style="ellipse;whiteSpace=wrap;html=1;aspect=fixed;fillColor=#f5f5f5;strokeColor=#666666;fontColor=#333333;" vertex="1" parent="1">
          <mxGeometry x="180" y="260" width="100" height="100" as="geometry" />
        </mxCell>
        <mxCell id="LLBpT46Yh_gF9BKEQQU7-19" style="edgeStyle=orthogonalEdgeStyle;rounded=0;orthogonalLoop=1;jettySize=auto;html=1;entryX=0;entryY=0.5;entryDx=0;entryDy=0;" edge="1" parent="1" source="LLBpT46Yh_gF9BKEQQU7-8" target="LLBpT46Yh_gF9BKEQQU7-18">
          <mxGeometry relative="1" as="geometry" />
        </mxCell>
        <mxCell id="LLBpT46Yh_gF9BKEQQU7-8" value="&lt;span style=&quot;font-size: 13px;&quot;&gt;serialize_f_types&lt;/span&gt;" style="ellipse;whiteSpace=wrap;html=1;aspect=fixed;fillColor=#f5f5f5;strokeColor=#666666;fontColor=#333333;" vertex="1" parent="1">
          <mxGeometry x="790" y="260" width="100" height="100" as="geometry" />
        </mxCell>
        <mxCell id="LLBpT46Yh_gF9BKEQQU7-10" value="" style="endArrow=classic;html=1;rounded=0;entryX=0.5;entryY=0;entryDx=0;entryDy=0;" edge="1" parent="1" target="LLBpT46Yh_gF9BKEQQU7-1">
          <mxGeometry width="50" height="50" relative="1" as="geometry">
            <mxPoint x="455" y="30" as="sourcePoint" />
            <mxPoint x="470" y="360" as="targetPoint" />
          </mxGeometry>
        </mxCell>
        <mxCell id="LLBpT46Yh_gF9BKEQQU7-11" value="&lt;font style=&quot;font-size: 14px;&quot;&gt;Dane z pliku CSV&lt;/font&gt;" style="edgeLabel;html=1;align=center;verticalAlign=middle;resizable=0;points=[];" vertex="1" connectable="0" parent="LLBpT46Yh_gF9BKEQQU7-10">
          <mxGeometry x="-0.175" y="-4" relative="1" as="geometry">
            <mxPoint x="74" as="offset" />
          </mxGeometry>
        </mxCell>
        <mxCell id="LLBpT46Yh_gF9BKEQQU7-30" style="edgeStyle=orthogonalEdgeStyle;rounded=0;orthogonalLoop=1;jettySize=auto;html=1;" edge="1" parent="1" source="LLBpT46Yh_gF9BKEQQU7-12">
          <mxGeometry relative="1" as="geometry">
            <mxPoint x="555" y="650" as="targetPoint" />
          </mxGeometry>
        </mxCell>
        <mxCell id="LLBpT46Yh_gF9BKEQQU7-12" value="&lt;span style=&quot;font-size: 13px;&quot;&gt;normalize_data&lt;/span&gt;" style="ellipse;whiteSpace=wrap;html=1;aspect=fixed;fillColor=#f5f5f5;strokeColor=#666666;fontColor=#333333;" vertex="1" parent="1">
          <mxGeometry x="505" y="440" width="100" height="100" as="geometry" />
        </mxCell>
        <mxCell id="LLBpT46Yh_gF9BKEQQU7-14" value="" style="endArrow=classic;html=1;rounded=0;entryX=0.5;entryY=0;entryDx=0;entryDy=0;exitX=1;exitY=1;exitDx=0;exitDy=0;" edge="1" parent="1" source="LLBpT46Yh_gF9BKEQQU7-2" target="LLBpT46Yh_gF9BKEQQU7-12">
          <mxGeometry width="50" height="50" relative="1" as="geometry">
            <mxPoint x="420" y="370" as="sourcePoint" />
            <mxPoint x="470" y="320" as="targetPoint" />
          </mxGeometry>
        </mxCell>
        <mxCell id="LLBpT46Yh_gF9BKEQQU7-15" value="" style="endArrow=classic;html=1;rounded=0;exitX=0;exitY=1;exitDx=0;exitDy=0;entryX=0.5;entryY=0;entryDx=0;entryDy=0;" edge="1" parent="1" source="LLBpT46Yh_gF9BKEQQU7-4" target="LLBpT46Yh_gF9BKEQQU7-12">
          <mxGeometry width="50" height="50" relative="1" as="geometry">
            <mxPoint x="420" y="370" as="sourcePoint" />
            <mxPoint x="470" y="320" as="targetPoint" />
          </mxGeometry>
        </mxCell>
        <mxCell id="LLBpT46Yh_gF9BKEQQU7-16" value="" style="endArrow=classic;html=1;rounded=0;exitX=0;exitY=0.5;exitDx=0;exitDy=0;entryX=1;entryY=0.5;entryDx=0;entryDy=0;" edge="1" parent="1" source="LLBpT46Yh_gF9BKEQQU7-6" target="LLBpT46Yh_gF9BKEQQU7-17">
          <mxGeometry width="50" height="50" relative="1" as="geometry">
            <mxPoint x="560" y="360" as="sourcePoint" />
            <mxPoint x="120" y="310" as="targetPoint" />
          </mxGeometry>
        </mxCell>
        <mxCell id="LLBpT46Yh_gF9BKEQQU7-17" value="&lt;font style=&quot;font-size: 13px;&quot;&gt;Widok danych&lt;/font&gt;" style="rounded=1;whiteSpace=wrap;html=1;fillColor=#cce5ff;strokeColor=#36393d;" vertex="1" parent="1">
          <mxGeometry x="-110" y="285" width="160" height="50" as="geometry" />
        </mxCell>
        <mxCell id="LLBpT46Yh_gF9BKEQQU7-18" value="&lt;font style=&quot;font-size: 13px;&quot;&gt;Widok danych&lt;/font&gt;" style="rounded=1;whiteSpace=wrap;html=1;fillColor=#cce5ff;strokeColor=#36393d;" vertex="1" parent="1">
          <mxGeometry x="990" y="285" width="160" height="50" as="geometry" />
        </mxCell>
        <mxCell id="LLBpT46Yh_gF9BKEQQU7-21" value="&lt;span style=&quot;font-size: 14px;&quot;&gt;Dane wyjściowe (DataFrame)&lt;/span&gt;" style="edgeLabel;html=1;align=center;verticalAlign=middle;resizable=0;points=[];" vertex="1" connectable="0" parent="1">
          <mxGeometry x="650" y="130" as="geometry" />
        </mxCell>
        <mxCell id="LLBpT46Yh_gF9BKEQQU7-22" value="&lt;span style=&quot;font-size: 14px;&quot;&gt;Dane wyjściowe (DataFrame)&lt;/span&gt;" style="edgeLabel;html=1;align=center;verticalAlign=middle;resizable=0;points=[];" vertex="1" connectable="0" parent="1">
          <mxGeometry x="350" y="220" as="geometry" />
        </mxCell>
        <mxCell id="LLBpT46Yh_gF9BKEQQU7-23" value="&lt;span style=&quot;font-size: 14px;&quot;&gt;Lista typów cech&lt;/span&gt;" style="edgeLabel;html=1;align=center;verticalAlign=middle;resizable=0;points=[];" vertex="1" connectable="0" parent="1">
          <mxGeometry x="730" y="285" as="geometry" />
        </mxCell>
        <mxCell id="LLBpT46Yh_gF9BKEQQU7-24" value="&lt;span style=&quot;font-size: 14px;&quot;&gt;Lista int&lt;/span&gt;" style="edgeLabel;html=1;align=center;verticalAlign=middle;resizable=0;points=[];" vertex="1" connectable="0" parent="1">
          <mxGeometry x="930" y="285" as="geometry" />
        </mxCell>
        <mxCell id="LLBpT46Yh_gF9BKEQQU7-25" value="&lt;span style=&quot;font-size: 14px;&quot;&gt;Dane po selekcji&lt;/span&gt;" style="edgeLabel;html=1;align=center;verticalAlign=middle;resizable=0;points=[];" vertex="1" connectable="0" parent="1">
          <mxGeometry x="350" y="285" as="geometry" />
        </mxCell>
        <mxCell id="LLBpT46Yh_gF9BKEQQU7-26" value="&lt;span style=&quot;font-size: 14px;&quot;&gt;Lista 2D stringów&lt;/span&gt;" style="edgeLabel;html=1;align=center;verticalAlign=middle;resizable=0;points=[];" vertex="1" connectable="0" parent="1">
          <mxGeometry x="120" y="285" as="geometry" />
        </mxCell>
        <mxCell id="LLBpT46Yh_gF9BKEQQU7-27" value="&lt;span style=&quot;font-size: 14px;&quot;&gt;Dane po selekcji&lt;/span&gt;" style="edgeLabel;html=1;align=center;verticalAlign=middle;resizable=0;points=[];" vertex="1" connectable="0" parent="1">
          <mxGeometry x="455" y="390" as="geometry" />
        </mxCell>
        <mxCell id="LLBpT46Yh_gF9BKEQQU7-28" value="&lt;span style=&quot;font-size: 14px;&quot;&gt;Lista typów cech&lt;/span&gt;" style="edgeLabel;html=1;align=center;verticalAlign=middle;resizable=0;points=[];" vertex="1" connectable="0" parent="1">
          <mxGeometry x="640" y="390" as="geometry" />
        </mxCell>
        <mxCell id="LLBpT46Yh_gF9BKEQQU7-31" value="&lt;span style=&quot;font-size: 14px;&quot;&gt;Znormalizowane dane&lt;/span&gt;" style="edgeLabel;html=1;align=center;verticalAlign=middle;resizable=0;points=[];" vertex="1" connectable="0" parent="1">
          <mxGeometry x="640" y="590" as="geometry" />
        </mxCell>
      </root>
    </mxGraphModel>
  </diagram>
</mxfile>
